<?xml version="1.0" encoding="utf-8"?>
<!-- Generator: Adobe Illustrator 17.0.0, SVG Export Plug-In . SVG Version: 6.00 Build 0)  -->
<!DOCTYPE svg PUBLIC "-//W3C//DTD SVG 1.1//EN" "http://www.w3.org/Graphics/SVG/1.1/DTD/svg11.dtd">
<svg version="1.1" id="Capa_1" xmlns="http://www.w3.org/2000/svg" xmlns:xlink="http://www.w3.org/1999/xlink" x="0px" y="0px"
	 width="960px" height="560px" viewBox="0 0 960 560" enable-background="new 0 0 960 560" xml:space="preserve">
<g>
	<ellipse fill="#003777" cx="-2844" cy="4975.58" rx="127.68" ry="117.6"/>
	<path fill="#003777" d="M-2661.44,5196.22c-25.76-19.04-63.84-39.2-116.48-50.4h-131.04c-52.64,11.2-90.72,31.36-116.48,50.4
		c-30.24,22.4-47.04,56-47.04,90.72v68.32h458.08v-68.32C-2614.4,5252.22-2631.2,5218.62-2661.44,5196.22z"/>
</g>
<g id="Tarjeta_de_crédito">
	<path fill="#003777" d="M801.273,18.5H172.545C132.648,18.5,100,51.148,100,91.045v56.416v120.909v209.584
		c0,39.898,32.648,72.545,72.545,72.545h628.727c39.898,0,72.545-32.648,72.545-72.545V268.371V147.462V91.045
		C873.818,51.148,841.17,18.5,801.273,18.5z M837.545,477.955c0,20.002-16.271,36.273-36.273,36.273H172.545
		c-20.002,0-36.273-16.271-36.273-36.273V268.371h701.273V477.955z M136.273,147.462V91.045c0-20.002,16.271-36.273,36.273-36.273
		h628.727c20.002,0,36.273,16.271,36.273,36.273v56.416H136.273z"/>
</g>
</svg>
